<svg width="0" height="0" class="hidden">
  <symbol xmlns="http://www.w3.org/2000/svg" viewBox="0 0 32 21" id="arrow">
    <path d="M2 10.5h28M16 19l14-8.5L16 2v17z" stroke="#173753" stroke-width="2.481" stroke-linecap="round" stroke-linejoin="round"></path>
  </symbol>

  <symbol xmlns="http://www.w3.org/2000/svg" viewBox="0 0 105 105" id="bonus">
    <path opacity=".2" d="M52.5 105c28.995 0 52.5-23.505 52.5-52.5S81.495 0 52.5 0 0 23.505 0 52.5 23.505 105 52.5 105z" fill="url(#paint0_linear)"></path>
    <path d="M52.75 79C67.248 79 79 67.248 79 52.75S67.248 26.5 52.75 26.5 26.5 38.252 26.5 52.75 38.252 79 52.75 79z" fill="#0CC" stroke="#173753" stroke-width="3.402" stroke-linecap="round" stroke-linejoin="round"></path>
    <path d="M52.875 71.25c10.148 0 18.375-8.227 18.375-18.375S63.023 34.5 52.875 34.5 34.5 42.727 34.5 52.875 42.727 71.25 52.875 71.25z" fill="#E5F9F9"></path>
    <path d="M47.1 53.925c2 0 3.475-1.325 3.475-3.3v-3.15c0-1.975-1.475-3.3-3.475-3.3s-3.475 1.325-3.475 3.3v3.15c0 1.975 1.475 3.3 3.475 3.3zm.95 7.425l10.5-14.925-1.95-1.4L46.125 59.95l1.925 1.4zm-.95-9.475c-.725 0-1.25-.575-1.25-1.3v-3.05c0-.725.525-1.275 1.25-1.275s1.275.575 1.275 1.275v3.05c0 .725-.55 1.3-1.275 1.3zm10.45 10.45c2 0 3.475-1.325 3.475-3.3v-3.15c0-1.975-1.475-3.3-3.475-3.3s-3.45 1.325-3.45 3.3v3.15c0 1.975 1.45 3.3 3.45 3.3zm0-2.05c-.725 0-1.225-.575-1.225-1.3v-3.05c0-.725.5-1.275 1.225-1.275.725 0 1.275.575 1.275 1.275v3.05c0 .725-.55 1.3-1.275 1.3z" fill="#173753"></path>
    <defs>
      <linearGradient id="paint0_linear" x1="42.731" y1="6.386" x2="77.71" y2="105" gradientUnits="userSpaceOnUse">
        <stop stop-color="#00C9C9" stop-opacity=".147"></stop>
        <stop offset="1" stop-color="#00C9C9" stop-opacity=".699"></stop>
      </linearGradient>
    </defs>
  </symbol>

  <symbol xmlns="http://www.w3.org/2000/svg" viewBox="0 0 50 50" id="exclusive-store">
    <path d="M0 8a8 8 0 018-8h34a8 8 0 018 8v34a8 8 0 01-8 8H8a8 8 0 01-8-8V8z" fill="#F6F7F8"></path>
    <path d="M17.4 10h16.2c3.6 0 6.5 2.9 6.5 6.5v17c0 3.6-2.9 6.5-6.5 6.5H17.4c-3.6 0-6.5-2.9-6.5-6.5v-17c0-3.6 2.9-6.5 6.5-6.5z" stroke="#FF5678" stroke-width="1.3"></path>
    <path d="M22 26.2c1.5 0 2.5-1 2.5-2.4v-2.3c0-1.4-1-2.4-2.5-2.4s-2.5 1-2.5 2.4v2.3c0 1.4 1.1 2.4 2.5 2.4zm.9 5.3l7.5-10.7-1.5-1.1-7.5 10.7 1.5 1.1zm-.9-6.9c-.4 0-.8-.3-.8-.8v-2.2c-.1-1 1.6-1 1.5 0v2.2c.1.4-.2.8-.7.8zm7.7 7.6c1.5 0 2.6-1 2.6-2.4v-2.3c0-1.4-1.1-2.4-2.6-2.4s-2.5 1-2.5 2.4v2.3c0 1.4 1.1 2.4 2.5 2.4zm.1-1.6c-.5 0-.8-.4-.8-.8v-2.2c0-.4.3-.8.8-.8s.8.3.8.8v2.2c-.1.5-.4.8-.8.8z" fill="#FF5678"></path>
  </symbol>

  <symbol xmlns="http://www.w3.org/2000/svg" viewBox="0 0 50 50" id="free-drink">
    <path d="M0 8a8 8 0 018-8h34a8 8 0 018 8v34a8 8 0 01-8 8H8a8 8 0 01-8-8V8z" fill="#F6F7F8"></path>
    <path d="M18.6 22.9c-.1 0-.4-.1-.7-.1h-1.5v2.1h1.5c.5 0 .9-.1 1.1-.3.2-.2.3-.4.3-.8 0-.2-.1-.5-.2-.6-.1-.1-.3-.2-.5-.3zm3.9-.1c-.1.4-.2.7-.3 1.1l-.6 1.7h2l-.7-1.6c-.2-.5-.3-.9-.4-1.2z" fill="#F8A644"></path>
    <path d="M39.5 24.2c0-1.3.9-2.5 2.1-2.9V16c0-1.1-.9-2-2-2H11c-1.1 0-2 .9-2 2v5.3c1.2.4 2.1 1.6 2.1 2.9 0 1.3-.9 2.5-2.1 2.9v6.3c0 1.1.9 2 2 2h28.5c1.1 0 2-.9 2-2v-6.3c-1.1-.4-2-1.6-2-2.9zm-21.6 1.4h-1.5V28h-.8v-5.8h2.2c.4 0 .7 0 .9.1.3 0 .5.1.7.3.2.1.4.3.5.6.1.2.2.5.2.8 0 .5-.2.9-.5 1.3-.3.2-.9.3-1.7.3zm6.5 2.4l-.7-1.8h-2.4l-.7 1.8h-.8l2.2-5.8h.8l2.4 5.8h-.8zm5.6-.8c-.2.3-.4.5-.8.6-.3.2-.7.2-1.1.2-.5 0-1-.1-1.3-.2-.4-.2-.6-.4-.8-.7-.2-.3-.3-.7-.3-1l.7-.1c0 .3.1.5.2.7.1.2.3.3.6.5.3.1.6.2.9.2.3 0 .6 0 .8-.1.2-.1.4-.2.5-.4.1-.2.2-.3.2-.5s-.1-.3-.2-.5c-.1-.1-.3-.3-.5-.3-.2-.1-.5-.2-1-.3-.5-.1-.9-.2-1.1-.4-.3-.1-.5-.3-.6-.5-.1-.2-.2-.5-.2-.7 0-.3.1-.6.3-.8.2-.3.4-.5.7-.6.3-.1.7-.2 1.1-.2.4 0 .8.1 1.1.2.3.1.6.3.8.6.2.3.3.6.3.9l-.7.1c0-.4-.2-.6-.4-.8-.2-.2-.6-.3-1-.3-.5 0-.8.1-1 .3-.2.2-.3.4-.3.6 0 .2.1.4.2.5.1.1.5.3 1.2.4.6.1 1.1.3 1.3.4.3.2.6.4.8.6.2.2.2.5.2.8-.3.3-.4.6-.6.8zm5.5 0c-.2.3-.4.5-.8.6-.3.2-.7.2-1.1.2-.5 0-1-.1-1.3-.2-.4-.2-.6-.4-.8-.7-.2-.3-.3-.7-.3-1l.7-.1c0 .3.1.5.2.7.1.2.3.3.6.5.3.1.6.2.9.2.3 0 .6 0 .8-.1.2-.1.4-.2.5-.4.1-.2.2-.3.2-.5s-.1-.3-.2-.5c-.1-.1-.3-.3-.5-.3-.2-.1-.5-.2-1-.3-.5-.1-.9-.2-1.1-.4-.3-.1-.5-.3-.6-.5-.1-.2-.2-.5-.2-.7 0-.3.1-.6.2-.8.2-.3.4-.5.7-.6.3-.1.7-.2 1.1-.2.4 0 .8.1 1.1.2.3.1.6.3.8.6.2.3.3.6.3.9l-.7.1c0-.4-.2-.6-.4-.8-.2-.2-.6-.3-1-.3-.5 0-.8.1-1 .3-.2.2-.3.4-.3.6 0 .2.1.4.2.5.1.1.5.3 1.2.4.6.1 1.1.3 1.3.4.3.2.6.4.8.6.2.2.2.5.2.8-.3.3-.4.6-.5.8z" fill="#F8A644"></path>
  </symbol>

  <symbol xmlns="http://www.w3.org/2000/svg" viewBox="0 0 128 82" id="home">
    <path fill-rule="evenodd" clip-rule="evenodd" d="M63.8 81.887c35.14 0 63.8-1.977 63.8-4.4 0-2.424-28.66-4.4-63.8-4.4S0 75.063 0 77.487c0 2.423 28.66 4.4 63.8 4.4z" fill="#E0E3E6"></path>
    <path fill-rule="evenodd" clip-rule="evenodd" d="M25.153 70.863h75.967V24.287H25.153v46.576z" fill="#F0F1F1"></path>
    <path fill-rule="evenodd" clip-rule="evenodd" d="M93.551 69.927H28.246c-.68 0-1.437-.08-2.156-.066V25.222h71.936c.68 0 1.438.08 2.157.066v44.64H93.55h.001zm7.569-46.576H34.504c-3.061 0-6.156-.13-9.215 0-.045.002-.09 0-.136 0a.95.95 0 00-.936.936v46.576c0 .505.43.935.936.935h66.616c3.061 0 6.155.131 9.215 0 .045-.002.09 0 .136 0 .274 0 .483-.1.632-.25l.032-.03.017-.018a.86.86 0 00.254-.637V24.287a.949.949 0 00-.935-.936z" fill="#292C6A"></path>
    <mask id="a" maskUnits="userSpaceOnUse" x="18" y="0" width="90" height="78">
      <path d="M18.486 77.831h89.367V.297H18.486v77.534z" fill="#fff"></path>
    </mask>
    <g mask="url(#a)" fill-rule="evenodd" clip-rule="evenodd">
      <path d="M19.331 75.93h87.496v-5.068H19.331v5.067z" fill="#F0F1F1"></path>
      <path d="M98.221 75.897H22.999c-.84 0-1.766-.095-2.642-.066v-4.034h82.982c.84 0 1.766.096 2.643.066v4.033h-7.761v.001zm8.696-5.97H30.206c-3.534 0-7.1-.14-10.633 0-.05.002-.101 0-.152 0a.949.949 0 00-.935.935v5.971a.95.95 0 00.935.935h76.711c3.535 0 7.101.141 10.634 0 .05-.002.1 0 .151 0a.949.949 0 00.936-.935v-5.97a.95.95 0 00-.936-.936z" fill="#292C6A"></path>
      <path d="M76.661 70.862h17.443V40.004H76.661v30.858z" fill="#39C0C4"></path>
      <path d="M78.848 69.927h-1.251V40.94h15.572v28.988H78.848zm15.256-30.859H76.661a.95.95 0 00-.935.936v30.86c0 .504.428.934.935.934h17.443c.275 0 .483-.1.633-.25l.031-.03.018-.019a.864.864 0 00.254-.636v-30.86a.95.95 0 00-.936-.935z" fill="#292C6A"></path>
      <path d="M33.361 54.505h34.633v-14.5H33.361v14.5z" fill="#D4DAE0"></path>
      <path d="M56.285 53.57H34.296V40.94h32.762v12.63H56.285zm12.644-13.566a.95.95 0 00-.935-.936H33.361a.95.95 0 00-.936.936v14.501a.95.95 0 00.935.936h34.633c.275 0 .484-.1.633-.25l.032-.03.017-.019a.86.86 0 00.254-.637v-14.5z" fill="#292C6A"></path>
      <path d="M31.568 24.527l3.835-23.295h10.01l-1.307 23.295s-.375 6.27-6.27 6.27c-5.893 0-6.267-6.27-6.267-6.27h-.001zm25.073 0V1.232h12.536v23.295s-.188 6.27-6.269 6.27c-6.08 0-6.267-6.27-6.267-6.27zm25.073 0l-.375-23.295h10.384l2.527 23.295s-.282 5.333-5.52 6.175c-5.24.842-6.89-3.92-7.016-6.175z" fill="#F0F1F1"></path>
      <path d="M106.786 24.527l-4.864-23.295H91.723l2.527 23.295s0 6.27 6.268 6.27 6.268-6.27 6.268-6.27zM45.414 1.232h11.227v23.296s-.653 6.174-6.268 6.268c-5.614.093-6.268-6.268-6.268-6.268l1.309-23.296zm23.762 0l.001 23.296s.282 6.361 6.269 6.268c5.986-.094 6.268-6.268 6.268-6.268l-.375-23.296H69.176zm-33.773 0l-1.65 10.024c-.696 4.232-1.425 8.46-2.09 12.698-.256 1.627-.562 3.106-1.586 4.47-1.145 1.526-2.888 2.31-4.777 2.372-5.801.187-5.817-6.456-5.817-6.456l6.19-23.108h9.73z" fill="#39C0C4"></path>
      <path d="M105.326 26.911c-.71 1.662-2.145 2.696-3.94 2.905-2.004.234-4.135-.32-5.254-2.107-.593-.948-.87-2.135-.94-3.015l-.015-.175c.013-1.055-.136-2.15-.294-3.23-.42-4.233-.967-8.462-1.425-12.686l-.698-6.435h8.402l4.12 19.724.567 2.713c-.014.73-.174 1.488-.523 2.306zm-12.065-1.98c-.278 1.364-.835 2.66-1.899 3.6-1.686 1.49-4.643 1.888-6.495.488-1.347-1.018-2.107-2.838-2.218-4.492l-.011-.74v-.002l-.105-6.502-.006-.369c-.08-4.913-.086-9.834-.232-14.746h8.594l1.569 14.462.351 3.237c.173 1.594.329 3.191.5 4.785.003.191.018-.048-.048.278zm-12.562.191c-.045.216-.091.43-.149.643a6.729 6.729 0 01-.644 1.592 4.822 4.822 0 01-3.273 2.382c-3.088.645-5.553-1.056-6.31-4.01-.156-.605-.201-.808-.21-1.226v-.108c.064-1.11 0-2.236 0-3.334V2.167h10.305l.186 11.552.13 8.066v.001l.043 2.68a8.23 8.23 0 01-.025.35v.001l-.007.036c-.014.09-.028.18-.046.268v.001zm-12.464-.469c-.003.06-.011.12-.017.18l-.01.122c0-.01 0-.029-.011.044a8.015 8.015 0 01-.478 1.755c-.657 1.587-1.934 2.7-3.64 3.012-2.24.408-4.533-.344-5.67-2.38-.35-.623-.572-1.304-.716-2.002-.092-.444-.1-.399-.116-.858v-7.699c0-4.884.083-9.776.008-14.66h10.656V18.38l.001 4.228c0 .547-.01 1.083.007 1.618-.003.1-.003.198-.007.297l-.007.132zM51.3 29.777c-3.036.553-5.234-1.426-6.024-4.206a9.501 9.501 0 01-.228-1.013c.144-1.262.135-2.56.205-3.808.095-1.702.19-3.403.287-5.105l.757-13.476h9.409v22.357l-.013.057c-.507 2.394-1.768 4.716-4.393 5.193v.001zm-8.133-5.215a2.095 2.095 0 00-.007.131.508.508 0 00-.018.09 8.893 8.893 0 01-.444 1.69c-.605 1.592-1.793 2.84-3.482 3.24-2.198.522-4.537-.216-5.724-2.183a7.312 7.312 0 01-.841-2.14 8.983 8.983 0 01-.127-.67c-.003-.03-.013-.105-.017-.162l2.532-15.384c.385-2.335.77-4.67 1.153-7.006h8.234l-.686 12.195-.173 3.09-.032.562-.064 1.134-.182 3.257c-.03.51-.072 1.002-.084 1.491l-.034.6-.004.065zm-12.716.77c-.403 1.662-1.265 3.162-2.835 3.958-1.226.62-2.785.774-4.098.343-1.7-.556-2.556-2.203-2.918-3.847-.124-.558-.078-.803-.178-1.338l.044-.162c.304-1.05.567-2.116.85-3.173L24.387 9.65l2.005-7.483h7.914l-1.238 7.52c-.192 1.165-.383 2.33-.578 3.496-.352 2.115-.708 4.23-1.056 6.347-.072.432-.137.868-.2 1.304-.03.177-.06.355-.088.532l-.455 2.76a.911.911 0 00-.058.385c-.056.274-.116.548-.182.82v.001zm77.235-1.068l-4.26-20.397-.604-2.883c-.083-.399-.51-.687-.902-.687H25.674a.954.954 0 00-.903.687l-5.295 19.763c-.283 1.058-.607 2.113-.85 3.18-.189.82.02 1.741.213 2.544.468 1.932 1.578 3.8 3.433 4.668 2.738 1.283 6.347.473 8.291-1.83.394-.467.707-.966.962-1.488.862 1.72 2.311 3.115 4.227 3.642 2.294.632 4.937.2 6.739-1.395.702-.62 1.25-1.406 1.66-2.259.904 1.788 2.382 3.255 4.414 3.73 3.308.773 6.45-.788 7.98-3.694.812 1.64 2.18 2.976 3.978 3.545 2.274.718 5.038.376 6.912-1.146.746-.606 1.327-1.386 1.758-2.244.908 1.77 2.438 3.16 4.5 3.57 3.316.657 6.492-.719 8.014-3.646 1.256 2.452 3.674 4.11 6.751 3.752a7.843 7.843 0 005.716-3.668c.232.474.51.926.846 1.342 1.475 1.825 3.843 2.524 6.128 2.357 3.822-.279 6.557-3.37 6.575-7.18 0-.097-.015-.183-.036-.264" fill="#292C6A"></path>
    </g>
  </symbol>

  <symbol xmlns="http://www.w3.org/2000/svg" viewBox="0 0 130 47" id="icons">
    <g clip-path="url(#clip0)">
      <path d="M41.88 20.138v4.277h6.339v17.077h4.434V24.415h6.34v-4.277H41.879zm36.376 1.24c-1.288-.888-3.216-1.36-5.593-1.36-1.071 0-6.35.114-6.572.12l-.838.017v21.337h4.464v-7.739h2.85a10.51 10.51 0 004.891-1.086 6.942 6.942 0 003.278-6.035c0-2.388-.832-4.156-2.48-5.254zm-8.55 3.037c.872 0 2.188-.063 2.73-.063 3.101 0 3.733.95 3.733 2.372.01.831-.37 1.62-1.025 2.132a5.866 5.866 0 01-2.943.569h-2.484l-.013-5.01h.001zm20.504.449a7.876 7.876 0 00-5.797 2.48 8.318 8.318 0 00-2.372 5.965 8.486 8.486 0 002.378 6.006 7.89 7.89 0 005.791 2.473 7.677 7.677 0 004.3-1.25v.687h4.405V25.228l-4.338.904a7.763 7.763 0 00-4.367-1.268zm2.976 5.328a4.417 4.417 0 011.204 3.117 4.457 4.457 0 01-1.204 3.145 3.807 3.807 0 01-5.609 0 4.448 4.448 0 01-1.198-3.151 4.405 4.405 0 011.198-3.116c.71-.8 1.73-1.257 2.802-1.257 1.071 0 2.091.457 2.801 1.257l.006.005zm16.818 1.405l-1.711-.654c-1.539-.569-1.539-.74-1.539-.972 0-.364 0-1.035 1.962-1.035a8.904 8.904 0 014.047.983l1.22.57v-4.59l-.57-.21a13.71 13.71 0 00-4.783-.882c-3.945 0-6.305 1.866-6.305 4.988 0 3.121 2.28 4.242 4.036 4.879l1.836.654c1.779.631 1.95.807 1.95 1.137 0 .467 0 1.245-2.23 1.245a8.92 8.92 0 01-4.72-1.364l-1.288-.74v4.715l.462.24a12.2 12.2 0 005.518 1.25c4.19 0 6.692-1.956 6.692-5.226.029-2.997-2.058-4.056-4.577-4.987zm14.84 0l-1.71-.654c-1.54-.569-1.54-.74-1.54-.972 0-.364 0-1.035 1.961-1.035a8.904 8.904 0 014.047.983l1.22.57v-4.59l-.57-.21a13.71 13.71 0 00-4.783-.882c-3.945 0-6.305 1.866-6.305 4.988 0 3.121 2.281 4.242 4.036 4.879l1.836.654c1.779.631 1.95.807 1.95 1.137 0 .467 0 1.245-2.229 1.245a8.915 8.915 0 01-4.72-1.364l-1.289-.74v4.715l.462.24a12.202 12.202 0 005.518 1.25c4.19 0 6.693-1.956 6.693-5.226.028-2.997-2.03-4.056-4.578-4.987h.001z" fill="#122F53"></path>
      <path d="M58.702 41.538a2.317 2.317 0 002.32-2.315 2.317 2.317 0 00-2.32-2.314 2.317 2.317 0 00-2.32 2.314 2.317 2.317 0 002.32 2.315z" fill="url(#paint0_linear)"></path>
      <path d="M14.632 45.325c4.323 0 8.292-2.607 8.848-5.811l.899-7.952c-1.688.847-2.232 2.722-5.789 1.266 0 0-3.517-1.914-4.498-2.211-4.865-1.479-9.471 2.483-9.515 2.544l1.278 6.26c.562 3.239 4.502 5.904 8.777 5.904z" fill="url(#paint1_linear)"></path>
      <path d="M26.509 18.334a12.17 12.17 0 00-9.054-10.878l.276-2.552 2.196-1.117.087-.044 1.559-.783a1.362 1.362 0 00.607-1.831L21.988.75a1.366 1.366 0 00-1.836-.605l-.47.238-.035.016-4.446 2.202a.805.805 0 00-.466.645l-.412 3.801C7.9 7.068 2.67 12.042 2.213 18.334A2.725 2.725 0 000 21.006v1.28A2.723 2.723 0 002.609 25l1.8 13.905c.362 4.352 3.805 7.635 8.006 7.635h4.126c4.201 0 7.643-3.28 8.001-7.586L26.35 24.98a2.72 2.72 0 002.37-2.689v-1.28a2.726 2.726 0 00-2.211-2.677zM14.36 9.09c5.277 0 9.61 4.047 10.09 9.191h-2.001c-.47-4.049-3.904-7.197-8.086-7.197a8.145 8.145 0 00-8.092 7.198h-2c.478-5.144 4.81-9.191 10.09-9.191zm6.137 9.191h-2.215a4.025 4.025 0 00-3.922-3.103 4.025 4.025 0 00-3.922 3.103H8.224a6.2 6.2 0 016.136-5.262 6.203 6.203 0 016.137 5.262zM5.687 32.436l-.963-7.422h7.615l-.492 4.673c-2.894-.094-4.947 1.44-6.16 2.75zm16.767 6.295c-.27 3.256-2.814 5.712-5.913 5.712h-4.126c-3.1 0-5.643-2.456-5.918-5.762l-.502-3.88c.459-.758 2.32-3.433 5.672-3.4l-.62 5.879c-.08.768.461 1.462 1.212 1.545l.422.047a1.383 1.383 0 001.506-1.245l.577-5.49c.11.05.216.094.327.148 3.863 1.887 6.546 1.32 8.134.492l-.77 5.954zm1.068-8.252c-.52.54-2.928 2.596-7.68.276a12.755 12.755 0 00-.89-.389l.563-5.354h8.714l-.707 5.468zm3.123-8.194a.654.654 0 01-.655.658H2.733a.657.657 0 01-.657-.655v-1.28c0-.361.295-.654.657-.654H25.99c.363 0 .656.293.657.654l-.002 1.277z" fill="#122F53"></path>
      <path d="M16.763 40.934a1.167 1.167 0 00-.896 1.387 1.171 1.171 0 002.288-.491 1.168 1.168 0 00-1.392-.896zm.842-2.603a.549.549 0 10.232 1.069.549.549 0 00-.232-1.068zm-7.594 3.344a.409.409 0 10.173.8.409.409 0 00-.173-.8zm4.54-2.613a.775.775 0 10.607 1.394.776.776 0 00-.608-1.394zm-4.616 0a.775.775 0 10.33 1.514.774.774 0 10-.33-1.514zm7.244-2.035a1.13 1.13 0 00.873-.9 1.128 1.128 0 10-2.215.039 1.13 1.13 0 001.343.861zm-5.114 4.463a.774.774 0 10.822 1.315.773.773 0 10-.822-1.314zm7.808-3.954a.777.777 0 001.316-.823.778.778 0 00-1.416.238.77.77 0 00.1.585zm-.103 2.207a.773.773 0 00-.246 1.067.776.776 0 001.316-.82.777.777 0 00-1.07-.247zM9.498 36.538a1.11 1.11 0 00-1.527-.35 1.104 1.104 0 00-.352 1.523 1.11 1.11 0 002.02-.338 1.103 1.103 0 00-.141-.836v.001z" fill="#122F53"></path>
    </g>
    <defs>
      <linearGradient id="paint0_linear" x1="56.388" y1="39.223" x2="61.022" y2="39.223" gradientUnits="userSpaceOnUse">
        <stop stop-color="#59C4C9"></stop>
        <stop offset=".37" stop-color="#41B1BE"></stop>
        <stop offset="1" stop-color="#0F8BA8"></stop>
      </linearGradient>
      <linearGradient id="paint1_linear" x1="4.577" y1="37.806" x2="24.378" y2="37.806" gradientUnits="userSpaceOnUse">
        <stop stop-color="#59C4C9"></stop>
        <stop offset=".37" stop-color="#41B1BE"></stop>
        <stop offset="1" stop-color="#0F8BA8"></stop>
      </linearGradient>
      <clipPath id="clip0">
        <path fill="#fff" d="M0 0h130v47H0z"></path>
      </clipPath>
    </defs>
  </symbol>

  <symbol xmlns="http://www.w3.org/2000/svg" viewBox="0 0 50 50" id="logo">
    <path d="M0 8a8 8 0 018-8h34a8 8 0 018 8v34a8 8 0 01-8 8H8a8 8 0 01-8-8V8z" fill="#F6F7F8"></path>
    <g clip-path="url(#clip0)" fill="#00C9C9">
      <path d="M30.2 33.5V41l-5.3-2.1-5.5 2.1v-7.6c1.4 1.9 3.1 1.5 4.8.7.3-.1.6-.1.9 0 1.9.8 3.7 1.3 5.1-.6zm-5.4-17.2c-3 0-5.3 2.4-5.3 5.3 0 3 2.4 5.3 5.3 5.3s5.3-2.4 5.3-5.3-2.3-5.3-5.3-5.3z"></path>
      <path d="M36.2 22.1l-.5-.8c-.3-.5-.4-1.1-.3-1.7l.3-1.2c.3-1-.2-2.1-1.2-2.5l-.9-.4c-.6-.3-.9-.8-1.1-1.3l-.4-1.2c-.3-1-1.3-1.6-2.4-1.5l-1 .1c-.6.1-1.2-.1-1.7-.4l-.9-.8c-.8-.6-2-.6-2.8 0l-.7.8c-.4.3-.9.5-1.6.5l-1.1-.2c-1-.1-2 .6-2.4 1.5l-.3 1c-.2.6-.5 1.1-1.1 1.3l-1 .5c-1 .5-1.4 1.5-1.1 2.6l.2 1c.2.6 0 1.1-.2 1.7l-.6 1c-.5.9-.4 2 .4 2.7l.7.7c.5.4.7.9.8 1.5v1.2c.1 1 .8 1.9 1.9 2.1l1 .2c.6.1 1.1.3 1.5.9l.7.9c.6.9 1.7 1.2 2.7.8l.9-.4c.6-.3 1.1-.3 1.7 0l1 .4c1 .4 2.1.1 2.7-.8l.6-.8c.3-.5.8-.8 1.5-.9l1.1-.2c1-.2 1.8-1.1 1.8-2.1l.1-1c0-.6.2-1.2.7-1.6l.8-.8c.6-.8.8-1.9.2-2.8zm-11.3 6.5c-3.9 0-6.9-3.1-6.9-6.9 0-3.8 3-6.9 6.9-6.9 3.8 0 6.9 3.1 6.9 6.9-.1 3.8-3.1 6.9-6.9 6.9z"></path>
    </g>
    <defs>
      <clipPath id="clip0">
        <path fill="#fff" transform="translate(13 10)" d="M0 0h24v31H0z"></path>
      </clipPath>
    </defs>
  </symbol>

  <symbol xmlns="http://www.w3.org/2000/svg" viewBox="0 0 105 105" id="loyalty points">
    <path opacity=".2" d="M52.5 105c28.995 0 52.5-23.505 52.5-52.5S81.495 0 52.5 0 0 23.505 0 52.5 23.505 105 52.5 105z" fill="url(#paint0_linear)"></path>
    <path fill-rule="evenodd" clip-rule="evenodd" d="M41.1 25.43l5.293-2.032 3.387 8.822-5.293 2.032L41.1 25.43z" fill="#0CC" stroke="#173753" stroke-width="2.722" stroke-linecap="round" stroke-linejoin="round"></path>
    <path fill-rule="evenodd" clip-rule="evenodd" d="M53.278 31.531c8.142 0 14.742 6.6 14.742 14.742 0 2.014-.404 3.933-1.135 5.682L64.401 73.76a9.073 9.073 0 01-9.014 8.045h-5.352a9.073 9.073 0 01-9.014-8.045l-2.485-21.817h1.13a14.69 14.69 0 01-1.13-5.67c0-8.142 6.6-14.742 14.742-14.742z" fill="#E5F9F9" stroke="#0F2336" stroke-width="2.722" stroke-linecap="round" stroke-linejoin="round"></path>
    <path fill-rule="evenodd" clip-rule="evenodd" d="M55.557 64.543c3.777 2.516 7.09 3.933 9.941 4.252l-.469 4.684a9.88 9.88 0 01-9.83 8.896h-5.13a9.88 9.88 0 01-9.83-8.896l-.99-9.882c5.048-3.25 10.484-2.935 16.308.946z" fill="#00C9C9"></path>
    <path clip-rule="evenodd" d="M53.278 31.531c8.142 0 14.742 6.6 14.742 14.742 0 2.014-.404 3.933-1.135 5.682L64.401 73.76a9.073 9.073 0 01-9.014 8.045h-5.352a9.073 9.073 0 01-9.014-8.045l-2.485-21.817h1.13a14.69 14.69 0 01-1.13-5.67c0-8.142 6.6-14.742 14.742-14.742v0z" stroke="#173753" stroke-width="2.722" stroke-linecap="round" stroke-linejoin="round"></path>
    <path d="M68.587 45.139H36.835A2.835 2.835 0 0034 47.974v1.134a2.835 2.835 0 002.835 2.835h31.752a2.835 2.835 0 002.835-2.835v-1.134a2.835 2.835 0 00-2.835-2.835z" fill="#E5F9F9" stroke="#173753" stroke-width="2.722" stroke-linecap="round" stroke-linejoin="round"></path>
    <defs>
      <linearGradient id="paint0_linear" x1="42.731" y1="6.386" x2="77.71" y2="105" gradientUnits="userSpaceOnUse">
        <stop stop-color="#00C9C9" stop-opacity=".147"></stop>
        <stop offset="1" stop-color="#00C9C9" stop-opacity=".699"></stop>
      </linearGradient>
    </defs>
  </symbol>

  <symbol xmlns="http://www.w3.org/2000/svg" viewBox="0 0 105 105" id="share">
    <path opacity=".2" d="M52.5 105c28.995 0 52.5-23.505 52.5-52.5S81.495 0 52.5 0 0 23.505 0 52.5 23.505 105 52.5 105z" fill="url(#paint0_linear)"></path>
    <path d="M52.25 78.5c14.498 0 26.25-11.752 26.25-26.25S66.748 26 52.25 26 26 37.752 26 52.25 37.752 78.5 52.25 78.5z" fill="#0CC" stroke="#173753" stroke-width="3.402" stroke-linecap="round" stroke-linejoin="round"></path>
    <path d="M52.25 70.625c10.148 0 18.375-8.227 18.375-18.375S62.398 33.875 52.25 33.875 33.875 42.102 33.875 52.25s8.227 18.375 18.375 18.375z" fill="#E5F9F9"></path>
    <path d="M46 52.615h13.23m-6.615 6.615l6.615-6.615L52.615 46v13.23z" stroke="#173753" stroke-width="2.481" stroke-linecap="round" stroke-linejoin="round"></path>
    <defs>
      <linearGradient id="paint0_linear" x1="42.731" y1="6.386" x2="77.71" y2="105" gradientUnits="userSpaceOnUse">
        <stop stop-color="#00C9C9" stop-opacity=".147"></stop>
        <stop offset="1" stop-color="#00C9C9" stop-opacity=".699"></stop>
      </linearGradient>
    </defs>
  </symbol>
</svg>